<svg height="512" viewBox="0 0 64 64" width="512" xmlns="http://www.w3.org/2000/svg" xmlns:xlink="http://www.w3.org/1999/xlink"><linearGradient id="linear-gradient" gradientUnits="userSpaceOnUse" x1="2" x2="63.074" y1="22" y2="22"><stop offset="0" stop-color="#f9a86d"/><stop offset=".503" stop-color="#f05361"/><stop offset="1" stop-color="#b72563"/></linearGradient><linearGradient id="linear-gradient-3" x2="63.074" xlink:href="#linear-gradient" y1="36" y2="36"/><linearGradient id="linear-gradient-4" x2="63.074" xlink:href="#linear-gradient" y1="32" y2="32"/><g id="Gradient_outline" data-name="Gradient outline"><path d="m39 21h2v2h-2z" fill="url(#linear-gradient)"/><path d="m43 21h2v2h-2z" fill="url(#linear-gradient)"/><path d="m51 29h-4a1 1 0 0 0 -.986 1.165l2 12a1 1 0 0 0 .986.835h4a1 1 0 0 0 .986-1.165l-2-12a1 1 0 0 0 -.986-.835zm-1.153 12-1.666-10h1.972l1.666 10z" fill="url(#linear-gradient-3)"/><path d="m3 27h1v3a1 1 0 0 0 1 1h24.133l.877 6.142a1 1 0 0 0 .99.858h11.58l2.44 12.2a1 1 0 0 0 .98.8h14a1 1 0 0 0 .98-1.2l-3.76-18.8h3.78a1 1 0 0 0 .97-1.243l-3-12a1 1 0 0 0 -.97-.757h-3v-3a1 1 0 0 0 -1-1h-6a1 1 0 0 0 -1 1v3h-11a1 1 0 0 0 -1 1v1h-4a1 1 0 0 0 -1 1v1h-6v-1a1 1 0 0 0 -1-1h-6.823l-10.835-3.94a1 1 0 0 0 -1.342.94v3h-1a1 1 0 0 0 -1 1v6a1 1 0 0 0 1 1zm34.264 4a3.882 3.882 0 0 1 -.339 3.022c-.768 1.166-2.515 1.831-5.061 1.953l-.711-4.975zm.569 5a5.017 5.017 0 0 0 .762-.876 5.648 5.648 0 0 0 .714-4.124h1.871l1 5zm8.987 13-.4-2h11.96l.4 2zm9.18-20a1 1 0 0 0 -.98 1.2l2.96 14.8h-11.96l-3.04-15.2a1 1 0 0 0 -.98-.8h-36v-2h53.219l.5 2zm1.719-8h-8.719v-2h8.219zm-8.719-6h4v2h-4zm-12 4h10v3a1 1 0 0 0 1 1h10.219l.5 2h-21.719zm-31-1.572 4.324 1.572h-4.324zm-2 3.572h6v2h2v-2h3v2h2v-2h5v1a1 1 0 0 0 1 1h8a1 1 0 0 0 1-1v-1h3v4h-31z" fill="url(#linear-gradient-4)"/></g></svg>