<svg height="512" viewBox="0 0 64 64" width="512" xmlns="http://www.w3.org/2000/svg"><path d="m31 36v-2c3.023 0 5.072-.684 5.925-1.978a4.36 4.36 0 0 0 .156-3.628l1.838-.788c.054.124 1.287 3.074-.324 5.518-1.259 1.908-3.814 2.876-7.595 2.876z" fill="#aabece"/><path d="m44 37h-13a1 1 0 0 1 -.99-.858l-1-7 1.98-.284.877 6.142h12.133z" fill="#394d5c"/><path d="m31 20v2h-8v-2h-20v6h33v-6z" fill="#5a6470"/><path d="m60 26h-24v-8h22z" fill="#aabece"/><path d="m5 26h55l1 4h-5l4 20h-14l-4-20h-37z" fill="#7d8d9c"/><path d="m45.2 46 .8 4h14l-.8-4z" fill="#aabece"/><g fill="#f4f4e6"><path d="m39 21h2v2h-2z"/><path d="m43 21h2v2h-2z"/><path d="m15 20h2v3h-2z"/><path d="m10 20h2v3h-2z"/></g><path d="m16 20-11-4v4z" fill="#7d8d9c"/><path d="m48 14h6v4h-6z" fill="#7d8d9c"/><path d="m59 22-1-4h-10v4z" fill="#5a6470"/><path d="m47 30 2 12h4l-2-12z" fill="#394d5c"/></svg>